<svg xmlns="http://www.w3.org/2000/svg" viewBox="0 0 491.66 215.732">
  <defs>
    <style>
      .cls-1 {
        fill: #005BAA;
      }
    </style>
  </defs>
  <g id="Group_1363" data-name="Group 1363" transform="translate(-0.5 -0.931)">
    <path id="Path_1" data-name="Path 1" class="cls-1" d="M111.119,45.4h98.532V1.081H111.119C42.832,1.081.5,49.081.5,108.283.5,177.921,51.9,215.5,111.119,215.5h98.532V83.667H118.3v44.318h43.221v45.251h-50.4c-31.272,0-61.717-31.517-61.717-64.953S79.849,45.4,111.119,45.4Z" transform="translate(0 0.092)"/>
    <path id="Path_2" data-name="Path 2" class="cls-1" d="M286.678,86.115H210.156c-11.739,0-19.185-9.7-19.185-20.358s8.444-19.385,19.185-20.282v-.091H337.629V1.081H210.156c-36.207,0-65.559,28.482-65.559,63.644s29.352,63.657,65.559,63.657l76.522.575A22.759,22.759,0,0,1,304.761,151c0,10.723-9.239,22.59-18.082,22.59H151.131v42.862H286.678c36.805,0,66.614-29.917,66.614-65.631C353.291,111.415,328.74,86.115,286.678,86.115Z" transform="translate(88.778 0.092)"/>
    <path id="Path_3" data-name="Path 3" class="cls-1" d="M285.968,107.84h6.98V98.412h23.335V89.8H292.948v-9.44h-6.98Z" transform="translate(175.877 48.934)"/>
    <path id="Path_4" data-name="Path 4" class="cls-1" d="M285.968,88.387h6.98V78.939h23.335V70.324H292.948V60.886h-6.98Z" transform="translate(175.877 36.938)"/>
    <path id="Path_5" data-name="Path 5" class="cls-1" d="M309.3,59.275h-5.327V44.021h-6.584V59.275h-4.439V42.649h-6.98V67.894h30.315v-25.6H309.3Z" transform="translate(175.877 25.483)"/>
    <path id="Path_6" data-name="Path 6" class="cls-1" d="M285.968,10.676l10.592,6.86L285.968,24.45v9.787l18.579-12.281,11.736-.011v-8.6H304.708L285.968.931Z" transform="translate(175.877 0)"/>
    <path id="Path_7" data-name="Path 7" class="cls-1" d="M299.71,121.621a6.724,6.724,0,0,0-5.787-3.051c-6.094,0-7.954,5.175-7.954,10.891v15.655h30.315V129.008c0-6.729-3.232-11.949-9.154-11.949S299.71,121.621,299.71,121.621ZM292.541,136.5V130.87c0-1.642.1-3.911,2.448-3.911s2.56,2.035,2.56,3.4v6.133Zm17.166-6.545v6.536H303.54V129.8c0-1.881.384-4.126,3.248-4.126C309.623,125.674,309.707,128.658,309.707,129.954Z" transform="translate(175.877 71.547)"/>
    <path id="Path_8" data-name="Path 8" class="cls-1" d="M285.968,108.039v8.231l30.315,12.6v-8.8l-6.375-2.479V106.972l6.375-2.371V95.553Zm17.559,7.08-7.418-2.9,7.418-2.793Z" transform="translate(175.877 58.297)"/>
    <path id="Path_9" data-name="Path 9" class="cls-1" d="M312.049,22.658c-1.238.069-2.267.194-3.46.257-5.3.281-6.716,3.4-6.716,3.4s-1.821-3.788-7.169-3.788c-4.877,0-8.736,4.034-8.736,10.041V50.4h30.315V41.79H305.105V35.7c0-3.1,1.239-4.032,3.6-4.409,1.3-.2,2.195-.283,3.533-.368a11.059,11.059,0,0,0,4.048-1.012V20.664A6.475,6.475,0,0,1,312.049,22.658ZM298.918,35.052v6.736h-6.377V35.052c0-2.7,1.112-3.913,3.135-3.913C297.682,31.14,298.918,31.678,298.918,35.052Z" transform="translate(175.876 12.158)"/>
  </g>
</svg>
